<svg width="1920" height="1080" viewBox="0 0 1920 1080" xmlns="http://www.w3.org/2000/svg"><rect width="1920" height="1080" fill="#3d1053"/><path d="M1920,1080C1600.6666666666667,1147.5,297.3333333333333,1129,0,1080C-297.3333333333333,1031,90.83333333333334,857.6666666666666,136,786C181.16666666666666,714.3333333333334,226,664.3333333333334,271,650C316,635.6666666666666,359.8333333333333,668,406,700C452.1666666666667,732,502.3333333333333,850,548,842C593.6666666666666,834,634.6666666666666,663.6666666666666,680,652C725.3333333333334,640.3333333333334,773.6666666666666,789.3333333333334,820,772C866.3333333333334,754.6666666666666,912.6666666666666,550.5,958,548C1003.3333333333334,545.5,1046,738.1666666666666,1092,757C1138,775.8333333333334,1187.6666666666667,709.6666666666666,1234,661C1280.3333333333333,612.3333333333334,1325.5,448.1666666666667,1370,465C1414.5,481.8333333333333,1455.6666666666667,765.6666666666666,1501,762C1546.3333333333333,758.3333333333334,1595.1666666666667,406.8333333333333,1642,443C1688.8333333333333,479.1666666666667,1736.3333333333333,940.3333333333334,1782,979C1827.6666666666667,1017.6666666666666,1893,658.1666666666666,1916,675C1939,691.8333333333334,2239.3333333333335,1012.5,1920,1080C1600.6666666666667,1147.5,297.3333333333333,1129,0,1080" fill="#df6688"/></svg>